<svg width="157" height="133" viewBox="0 0 157 133" fill="none" xmlns="http://www.w3.org/2000/svg">
<path fill-rule="evenodd" clip-rule="evenodd" d="M136 21.0159C136 11.8159 129.667 9.84927 126.5 10.0159C91.1667 10.1826 18.5 10.4159 10.5 10.0159C2.5 9.61593 0.166667 16.8493 0 20.5159V33.0497H45.9999C51.1999 26.6497 56.1666 30.383 57.9999 33.0497H52.9999L51.4999 37.0497L52.9999 40.0497H57.9999C53.9999 47.0497 47.4999 43.0497 45.9999 40.5497H0V51.1681H59.7391L62.3913 48.5159L73 51.1681V53.8203V54.4833V57.1355L62.3913 59.7877L59.7391 57.1355H0V93.0159C0 98.6159 7 101.683 10.5 102.516C46.8333 103.016 121.1 103.716 127.5 102.516C128.066 102.41 128.597 102.264 129.096 102.084C128.874 101.929 128.661 101.751 128.46 101.55L111.35 84.44C101.78 88.21 93.3702 78.93 95.9802 70.81L101.2 75.74C103.23 78.06 107.29 78.06 109.32 75.74C111.64 73.71 111.64 69.94 109.32 67.62L104.1 62.4C113.38 59.79 121.79 69.36 117.73 78.35L134.84 95.46C134.943 95.5839 135.039 95.7136 135.128 95.8482C135.687 94.4104 135.944 93.0261 136 92.0159V76.9L129.62 78.93C129.62 79.6184 129.438 80.1253 129.219 80.7379C129.161 80.8995 129.101 81.0684 129.04 81.25L124.11 76.32C125.85 66.17 117.73 56.6 107 56.6C97.43 56.6 89.6 64.43 89.6 74C89.6 85.02 99.46 93.14 110.48 91.11L115.12 95.75C114.685 95.895 114.177 96.04 113.67 96.185C113.162 96.33 112.655 96.475 112.22 96.62L109.9 103H104.1L101.78 96.91C99.17 96.33 96.85 95.17 94.53 93.72L88.44 96.62L84.38 92.56L87.28 86.47C86.12 84.44 84.96 81.83 84.38 79.22L78 76.9V71.1L84.38 68.78C84.96 66.17 85.83 63.85 87.28 61.53L84.38 55.44L88.44 51.67L94.53 54.57C96.85 53.12 99.17 51.96 101.78 51.38L104.1 45H109.9L111.93 51.38C114.54 51.96 116.86 52.83 119.18 54.28L125.27 51.38L129.33 55.44L126.43 61.53C127.88 63.85 129.04 66.46 129.62 69.07L136 71.1V21.0159ZM64.5 105.016V120.516H38.5C31.5 121.516 31.5 126.516 31.5 130.516H109.5C110 127.683 109 120.516 101.5 120.516H76.5V105.016H64.5Z" fill="#273D4A"/>
<path fill-rule="evenodd" clip-rule="evenodd" d="M116 0C111.123 0 107.061 3.49192 106.178 8.11216C114.604 8.08088 122.396 8.04772 128.962 8.01675C130.591 7.931 133.018 8.38251 135.071 10H146.5C147.881 10 149 11.1193 149 12.5C149 13.8807 147.881 15 146.5 15H138.339C138.724 16.2934 138.947 17.8087 138.947 19.5786V21H146.5C147.881 21 149 22.1193 149 23.5C149 24.8807 147.881 26 146.5 26H138.947V92H147V93H138.947V94.2054C138.904 94.9736 138.751 95.9477 138.447 97H147V98H138.119C137.618 99.3558 136.863 100.771 135.774 102H147V103H134.758C133.527 104.056 131.968 104.875 130.013 105.242C127.899 105.638 118.746 105.837 106 105.908V120.472C112.056 121.633 112.879 128.089 112.402 130.792H109.731C111.446 132.173 113.626 133 116 133H147C152.523 133 157 128.523 157 123V10C157 4.47715 152.523 0 147 0H116ZM142 40C142 39.4477 142.448 39 143 39H148C148.552 39 149 39.4477 149 40C149 40.5523 148.552 41 148 41H143C142.448 41 142 40.5523 142 40ZM149 69.5C149 70.8807 147.881 72 146.5 72C145.119 72 144 70.8807 144 69.5C144 68.1193 145.119 67 146.5 67C147.881 67 149 68.1193 149 69.5ZM147 108H115V107H147V108Z" fill="#273D4A"/>
</svg>
